Patient4_TMGait_0pt3_01_right_25_EMG.mot
version=1
nRows=33
nColumns=33
inDegrees=no
endheader
time	1LAddLong	2LGlutMax	3LGlutMed	4LIliopsoas	5LSemiMemb	6LBicFemLong	7LRecFem	8LVastMed	9LVastLat	10LGasMed	11LTibAnt	12lTibPost	13LPeroneusLong	14LSol	15LExtDigLong	16LFlexDigLong	17RAddLong	18RGlutMax	19RGlutMed	20RIliopsoas	21RSemiMemb	22RBicFemLong	23RRecFem	24RVastMed	25RVastLat	26RGasMed	27RTibAnt	28RTibPost	29RPeroneusLong	30RSol	31RExtDigLong	32RFlexDigLong
46.625	-0.000153	-0.68512	-0.089874	-0.00061	-0.002441	0.010376	0.027008	0.002136	0.03418	-0.16388	-0.014496	-0.033417	-0.009918	-0.85175	-0.021362	-0.85052	-0.14587	-0.63492	0.084686	0.071564	-0.14893	0.19043	-0.063019	0.14175	0.097046	-0.002899	-0.017395	-0.002899	0.056305	0.19974	0.003815	-0.014343
46.626	-0.00473	-0.64179	-0.080566	0.023804	-0.005951	0.004883	0.03067	0.007172	0.047455	0.000458	-0.025024	0.61752	-0.50705	0.092621	-0.039673	-0.59403	-0.090485	-0.62103	0.1355	0.14969	0.19379	-0.097351	0.035858	0.097351	0.063019	-0.005035	-0.00946	-0.007935	0.60989	0.14999	-0.00061	-0.012817
46.627	-0.001831	-0.62637	-0.076904	0.003204	0.003357	-0.005493	0.023956	-0.004578	0.042267	0.35004	-0.013275	-0.006866	-0.66009	0.97992	-0.03891	0.33142	-0.078888	-0.54062	0.049744	0.07843	0.45319	0.26093	0.092316	0.071716	0.049896	-0.018921	0.048218	-0.00351	0.15335	0.084229	0	-0.010071
46.628	-0.004425	-0.62805	-0.078735	0.011902	-0.002594	-0.009308	0.014191	0.00824	0.051117	0.42572	-0.016327	-0.38635	-0.34149	0.93307	-0.13641	0.079651	-0.058136	-0.48401	-0.02243	-0.074768	0.29846	0.60516	0.062866	0.077972	0.08316	-0.068817	0.020447	-0.004425	-0.91995	0.13077	-0.001526	-0.009155
46.629	0.001068	-0.61172	-0.079193	-0.001373	0.011597	0.006256	0.030823	0.007477	0.056915	0.3714	-0.013733	0.36285	-0.10941	0.94315	-0.16663	0.10346	-0.046082	-0.42053	-0.10239	-0.1384	0.19882	0.42374	0.028992	0.08316	0.095673	-0.11536	0.018616	-0.009308	-0.093079	0.10819	-0.000763	-0.013123
46.63	-0.00412	-0.64041	-0.068817	0.003967	-0.002289	0.004272	0.019684	0.002899	0.058746	0.13031	-0.008698	-0.23895	0.18402	0.32806	-0.088654	0.87555	-0.029755	-0.40527	-0.046844	-0.09552	0.094299	0.097046	0.001526	0.039825	0.095825	-0.14969	0.039215	-0.015411	0.32913	0.21744	-0.001068	-0.007935
46.631	0.003052	-0.65002	-0.06897	-0.004425	0.011444	-0.007019	0.013428	0.005188	0.046844	0.003052	-0.005341	-0.070648	0.54565	-1.2506	-0.076294	-0.36148	-0.025635	-0.39948	-0.080872	0.004578	0.059509	-0.24307	-0.018311	0.085297	0.089874	-0.16144	0.054016	-0.013123	0.33081	0.24368	-0.00351	-0.00885
46.632	-0.00351	-0.6247	-0.081329	0.00824	-0.008698	0.006714	0.014038	0.003967	0.039368	-0.063477	0.009308	0.083313	0.46631	-1.696	-0.050964	-0.21301	-0.024567	-0.44464	0.066223	0.1329	0.08255	-0.36545	-0.014801	0.11017	0.069885	-0.078888	0.04837	-0.018616	-0.45914	0.12634	-0.002899	-0.005951
46.633	0.00061	-0.50308	-0.078735	0.003204	0.008698	-0.000763	0.022888	0.004425	0.054474	-0.084991	0.01709	-0.19562	-0.082397	-1.2598	-0.006714	0.24857	0.005188	-0.51178	0.26977	0.16464	0.23789	-0.3508	0.023041	0.12268	0.047455	0.097504	-0.079193	-0.021057	-0.54474	-0.08316	-0.006409	-0.001373
46.634	0.003815	-0.45105	-0.083466	-0.010529	0.004425	-0.001984	-0.004425	-0.00061	0.054474	-0.099182	-0.00885	0.11429	0.10956	-0.85861	0.013885	0.28824	0.022278	-0.58502	0.17822	0.080414	0.12436	-0.29083	0.064697	0.10361	0.050507	0.050964	-0.003967	-0.020752	-0.16617	-0.13275	-0.00061	-0.003662
46.635	-0.001221	-0.37811	-0.08728	0.002899	0.001831	-0.005798	0.008087	0	0.058746	-0.10681	-0.03006	0.003662	0.37506	-0.13977	0.005493	-0.14389	0.031281	-0.6337	0.094147	-0.018616	-0.13657	-0.39017	0.11459	-0.030212	0.03006	0.04303	0.016174	-0.016632	1.0439	0.019073	-0.001831	-0.014343
46.636	0.015259	-0.28061	-0.074921	0.007019	0.009003	-0.020599	-0.017548	-0.005341	0.08316	-0.083008	-0.001373	-0.009155	0.1387	0.5014	-0.026245	-0.1947	0.039673	-0.5307	0.30853	-0.085754	-0.00946	-0.30304	0.10895	-0.020599	0.005646	-0.046082	0.028076	0.064545	0.48202	0.030212	-0.001678	-0.012817
46.637	-0.000763	-0.22201	-0.064392	0.011139	0.002441	-0.018311	0.001068	0.00351	0.081177	-0.07782	-0.017395	-0.002899	-0.011444	0.28336	-0.039978	-0.13397	0.027466	-0.49088	0.37827	-0.10178	0.069885	-0.13931	0.0383	0.038452	0.000153	-0.1648	0.035095	-0.00946	-0.064087	0.022125	-0.000458	-0.010834
46.638	-0.000763	-0.15457	-0.067902	0.00824	0.005798	-0.010529	0.03067	-0.004578	0.066223	-0.06424	0.014343	-0.006409	-0.50003	0.14618	0.031281	0.17487	-0.021362	-0.6987	0.15564	-0.13306	0.001678	0.000916	0.029755	0.082703	0.022888	-0.11047	-0.085907	-0.059357	-0.4628	-0.018768	-0.000458	-0.016327
46.639	-0.00412	-0.095825	-0.078583	0.001068	0.001526	-0.006409	0.000458	0.009613	0.04776	-0.045776	0.006104	-0.32242	-0.35523	0.028992	0.078125	-0.096283	-0.048523	-0.77881	0.06485	-0.093994	-0.14969	-0.060883	-0.005798	0.035706	0.035706	-0.099945	0.036774	0.068054	-0.74799	0.063629	0.001526	-0.009918
46.64	-0.003662	0.00061	-0.083618	0.00885	0.005341	-0.001221	0.00473	-0.002136	0.051727	-0.056458	-0.001984	0.19943	-0.002289	-0.001526	0.068665	-0.1857	-0.022583	-0.83038	0.059052	0.089722	-0.19638	0.040894	0.010681	-0.089874	0.013123	-0.035858	0.063629	-0.003357	-0.71732	0.13168	-0.001831	-0.002747
46.641	-0.001526	0.062103	-0.079651	-0.00885	0.00061	-0.000305	0.019989	0.003815	0.051422	-0.054016	-0.010223	0.066986	-0.005951	-0.096741	0.045624	-0.14038	0.008392	-0.83359	-0.017853	0.22201	-0.05188	-0.023956	0.008545	0.02655	0.039978	0.17303	0.095825	0.024261	-0.33569	0.033569	0.00061	-0.015259
46.642	-0.001221	0.097351	-0.090179	-0.003662	0.008087	-0.001221	0.025635	0.000763	0.04303	-0.024109	-0.005493	0.027313	-0.020294	-0.13748	0.0177	-0.036163	0.026703	-0.84595	0.010986	0.14023	-0.00061	-0.042267	0.019684	0.076294	0.041962	0.2002	0.035858	0.027618	0.79559	0.019073	0.002441	-0.010376
46.643	0.000153	0.11749	-0.085907	0.009766	0.008392	-0.005493	0.035095	0.000763	0.034637	-0.016785	-0.007019	0.016479	-0.021057	0.064087	0.001984	0.016937	0.037384	-0.87784	-0.03418	0.012512	0.024109	-0.1474	0.035858	0.13504	0.065308	0.11612	-0.13626	-0.006714	1.604	0.020294	-0.001984	-0.002136
46.644	0.001221	0.16007	-0.080261	0.017395	0.001526	0.008392	0.026093	0.000763	0.035706	-0.020447	-0.005798	0.003204	0.01709	0.063019	0.002899	0.014191	0.00946	-0.82047	0.063629	-0.058441	0.013733	-0.18005	0.03891	0.12741	0.04303	0.10315	-0.000458	-0.010223	0.36636	0.072937	-0.001678	0.004272
46.645	-0.004425	0.19302	-0.056152	0.017853	0.014343	0.004272	0.016937	-0.002441	0.032043	-0.049744	0.000458	0.009155	-0.009003	0.021362	0.022583	0.004578	0.002899	-0.82367	0.12314	-0.048981	-0.22736	-0.12604	0.050964	-0.00824	0.025024	0.056305	0.015869	-0.005188	0.22903	-0.11581	-0.001831	0.004425
46.646	-0.001984	0.22232	-0.054321	-0.002899	0.014801	0.007477	0.034637	0.003204	0.015869	0.002136	-0.000153	0.025482	-0.060883	0.054626	0.021362	0.002289	0.010834	-0.74387	0.24689	-0.039368	-0.19516	-0.033875	0.055237	-0.061646	0.016632	0.012054	-0.031281	-0.00412	0.26093	-0.17227	-0.001984	0.000763
46.647	-0.006256	0.26077	-0.075226	0.005341	0.000305	-0.009003	0.035248	-0.001068	0.024414	-0.03891	0.015869	0.028076	-0.047455	0.14832	0.016327	-0.002747	0.045929	-0.76889	0.07431	-0.016632	-0.14069	-0.055084	0.069275	-0.13473	-0.017395	0.015106	-0.04303	-0.013123	0.10696	-0.17319	-0.004883	0.005035
46.648	-0.005951	0.31677	-0.062256	-0.001526	0.009308	0.009613	0.011902	0.003052	0.036011	-0.014038	0.006409	0.030365	-0.057526	0.18875	0.013428	0.00824	0.027008	-0.74432	-0.041504	0.024719	-0.06897	-0.052185	0.073395	-0.10864	-0.031128	-0.002136	-0.0354	-0.010376	0.006409	-0.12299	-0.001984	-0.006561
46.649	-0.003357	0.39108	-0.026703	0.001984	0.013885	0.023346	0.001221	0.006714	0.041809	-0.011444	0.003204	0.028534	-0.045776	0.3421	0.017395	0.032043	-0.003052	-0.7132	0.004425	0.10666	-0.13275	0.059967	0.034332	0.032806	-0.027313	0.002594	-0.024414	-0.012665	0.007935	-0.053253	-0.001068	-0.011597
46.65	0.000153	0.43427	-0.054169	0.008392	-0.003357	0.014496	0.032043	-0.005341	0.049744	0.003662	-0.001373	0.000153	-0.061493	0.26413	0.022736	-0.002289	-0.017242	-0.68085	-0.12772	0.1001	-0.13763	0.1828	0.001984	0.064087	0.016937	0.033722	-0.001221	-0.004883	0.14236	0.041504	-0.005493	-0.00824
46.651	-0.005493	0.42557	-0.064392	0.009766	0.005646	-0.00946	0.013428	-0.008545	0.038605	-0.006561	0.002594	-0.00351	-0.068817	0.17777	0.027466	-0.005951	-0.05722	-0.66025	-0.04715	0.030975	0.070496	0.16968	-0.050659	-0.011139	0.11032	0.0354	0.038452	-0.01236	0.084076	0.092163	-0.002899	-0.013123
46.652	0.004272	0.48416	-0.059204	0.001373	-0.001984	-0.017395	0.010529	-0.000916	0.038452	-0.016327	-0.005646	-0.022888	-0.036163	0.11887	0.018158	0.007324	-0.014343	-0.59113	0.030365	0.012054	0.18356	-0.046082	-0.00473	-0.1059	0.14343	0.021362	0.071564	-0.007477	0.027161	0.089111	0.000916	-0.011139
46.653	0.000763	0.53024	-0.067749	0.004425	0.000763	-0.074158	0.001678	0.005341	0.044556	-0.007019	-0.002136	-0.024261	-0.007324	0.11002	0.00885	0.005493	0.032196	-0.52048	0.066833	-0.004272	0.02243	-0.23666	0.045166	-0.21851	0.11795	0.016327	0.06073	-0.015564	-0.04715	0.013733	-0.001831	-0.015717
46.654	0.004272	0.53772	-0.045319	-0.001831	0.008087	-0.12817	-0.032196	-0.000153	0.054016	-0.001831	0.005493	-0.0354	0.069733	0.16251	0.053101	-0.005035	0.03952	-0.52475	0.1561	-0.016937	-0.24689	-0.27817	0.083313	-0.18234	0.16022	0.010223	0.03952	-0.021362	-0.081329	0.054169	0.001526	-0.020599
46.655	0.003815	0.53818	-0.071259	0.003662	0.014191	-0.11688	-0.01236	-0.003357	0.060577	-0.008698	0.002899	-0.061798	0.078583	0.17639	0.05249	-0.000763	0.008087	-0.55389	0.037994	0.007782	-0.44006	-0.18173	0.035095	-0.089264	0.17639	-0.005646	0.024261	-0.032806	-0.11108	0.1294	0.007477	-0.021362
46.656	0.006866	0.58502	-0.075378	-0.001221	0.023193	-0.095673	-0.007629	-0.002747	0.044861	0.000458	0.003052	-0.045471	-0.020294	0.10239	0.024872	0.018921	-0.016022	-0.46036	-0.22034	0.002747	0.042114	-0.28015	0.002594	-0.060577	0.30197	-0.044861	-0.002594	-0.027618	-0.004578	0.086517	0.000305	-0.011597
46.657	0.000763	0.58136	-0.070801	0.005188	0.014648	-0.034943	0.024567	0.000305	0.021667	-0.022888	0.003967	-0.035858	-0.20554	-0.055084	0.020905	0.020447	0.006409	-0.43427	-0.36438	-0.004883	0.06073	-0.3949	-0.054932	-0.075989	0.56717	-0.01358	-0.032501	0.099335	0.42358	-0.059814	-0.001068	-0.009613
